<svg width="210" height="66" viewBox="0 0 210 66" fill="none" xmlns="http://www.w3.org/2000/svg">
<g clip-path="url(#clip0_99_3)">
<path d="M56.3571 0H45.6429C45.6429 0 36 0 36 9.64286V30H56.3571C66 30 66 20.3571 66 20.3571V9.64286C66 0 56.3571 0 56.3571 0Z" fill="#05F2AF"/>
<mask id="mask0_99_3" style="mask-type:luminance" maskUnits="userSpaceOnUse" x="0" y="0" width="30" height="30">
<path d="M9.64286 0H20.3571C20.3571 0 30 0 30 9.64286V30H9.64286C9.53674e-07 30 0 20.3571 0 20.3571V9.64286C0 0 9.64286 0 9.64286 0Z" fill="white"/>
</mask>
<g mask="url(#mask0_99_3)">
<path d="M30 30V32H32V30H30ZM20.3571 -2H9.64286V2H20.3571V-2ZM9.64286 2.38419e-07C9.64286 -2 9.64184 -2 9.64079 -2C9.64039 -2 9.6393 -2 9.6385 -2C9.63689 -1.99999 9.63514 -1.99999 9.63323 -1.99998C9.62942 -1.99996 9.625 -1.99994 9.62 -1.9999C9.60999 -1.99982 9.59761 -1.99968 9.58294 -1.99945C9.55361 -1.99897 9.51507 -1.99811 9.46794 -1.99654C9.37372 -1.9934 9.24478 -1.98742 9.08602 -1.97608C8.76918 -1.95345 8.32961 -1.90916 7.80737 -1.82212C6.77236 -1.64962 5.36179 -1.30089 3.927 -0.583497C2.48439 0.137812 0.98093 1.25118 -0.157401 2.95868C-1.30408 4.6787 -2 6.88217 -2 9.64286H2C2 7.58211 2.50944 6.16952 3.1708 5.17748C3.8405 4.17292 4.74776 3.47826 5.71586 2.99421C6.69179 2.50625 7.69193 2.2523 8.46496 2.12346C8.84674 2.05983 9.16051 2.02879 9.37101 2.01375C9.47592 2.00626 9.55416 2.00281 9.6012 2.00124C9.62468 2.00046 9.64029 2.00015 9.64745 2.00003C9.65103 1.99998 9.65248 1.99997 9.65174 1.99997C9.65137 1.99998 9.65045 1.99998 9.64898 1.99999C9.64824 1.99999 9.64736 1.99999 9.64634 2C9.64583 2 9.64496 2 9.64471 2C9.6438 2 9.64286 2 9.64286 2.38419e-07ZM-2 9.64286V20.3571H2V9.64286H-2ZM3.33786e-06 20.3571C-2 20.3571 -2 20.3582 -2 20.3592C-2 20.3596 -1.99999 20.3607 -1.99999 20.3615C-1.99999 20.3631 -1.99998 20.3649 -1.99998 20.3668C-1.99996 20.3706 -1.99994 20.375 -1.9999 20.38C-1.99982 20.39 -1.99968 20.4024 -1.99944 20.4171C-1.99897 20.4464 -1.9981 20.4849 -1.99653 20.5321C-1.99339 20.6263 -1.98742 20.7552 -1.97608 20.914C-1.95345 21.2308 -1.90916 21.6704 -1.82212 22.1926C-1.64961 23.2276 -1.30089 24.6382 -0.583494 26.073C0.137814 27.5156 1.25119 29.0191 2.95868 30.1574C4.6787 31.3041 6.88218 32 9.64286 32V28C7.58211 28 6.16952 27.4906 5.17748 26.8292C4.17293 26.1595 3.47826 25.2522 2.99421 24.2841C2.50625 23.3082 2.2523 22.3081 2.12346 21.535C2.05983 21.1533 2.02879 20.8395 2.01375 20.629C2.00626 20.5241 2.00282 20.4458 2.00125 20.3988C2.00046 20.3753 2.00015 20.3597 2.00004 20.3525C1.99998 20.349 1.99997 20.3475 1.99998 20.3483C1.99998 20.3486 1.99999 20.3495 1.99999 20.351C2 20.3518 2 20.3526 2 20.3537C2 20.3542 2 20.355 2 20.3553C2 20.3562 2 20.3571 3.33786e-06 20.3571ZM9.64286 32H30V28H9.64286V32ZM32 30V9.64286H28V30H32ZM32 9.64286C32 6.88217 31.3041 4.6787 30.1574 2.95868C29.0191 1.25118 27.5156 0.137811 26.073 -0.583497C24.6382 -1.30089 23.2276 -1.64962 22.1926 -1.82212C21.6704 -1.90916 21.2308 -1.95345 20.914 -1.97608C20.7552 -1.98742 20.6263 -1.9934 20.5321 -1.99654C20.4849 -1.99811 20.4464 -1.99897 20.4171 -1.99945C20.4024 -1.99968 20.39 -1.99982 20.38 -1.9999C20.375 -1.99994 20.3706 -1.99996 20.3668 -1.99998C20.3649 -1.99999 20.3631 -1.99999 20.3615 -2C20.3607 -2 20.3596 -2 20.3592 -2C20.3582 -2 20.3571 -2 20.3571 2.38419e-07C20.3571 2 20.3562 2 20.3553 2C20.355 2 20.3542 2 20.3537 2C20.3526 1.99999 20.3518 1.99999 20.351 1.99999C20.3495 1.99998 20.3486 1.99998 20.3483 1.99997C20.3475 1.99997 20.349 1.99998 20.3525 2.00003C20.3597 2.00015 20.3753 2.00046 20.3988 2.00124C20.4458 2.00281 20.5241 2.00626 20.629 2.01375C20.8395 2.02879 21.1533 2.05983 21.535 2.12346C22.3081 2.2523 23.3082 2.50625 24.2841 2.99421C25.2522 3.47826 26.1595 4.17292 26.8292 5.17748C27.4906 6.16952 28 7.58211 28 9.64286H32Z" fill="#1B284E"/>
</g>
<mask id="mask1_99_3" style="mask-type:luminance" maskUnits="userSpaceOnUse" x="36" y="36" width="30" height="30">
<path d="M56.3571 66H45.6429C45.6429 66 36 66 36 56.3571V36H56.3571C66 36 66 45.6429 66 45.6429V56.3571C66 66 56.3571 66 56.3571 66Z" fill="white"/>
</mask>
<g mask="url(#mask1_99_3)">
<path d="M36 36V34H34V36H36ZM45.6429 68H56.3571V64H45.6429V68ZM56.3571 66C56.3571 68 56.3582 68 56.3592 68C56.3596 68 56.3607 68 56.3615 68C56.3631 68 56.3649 68 56.3668 68C56.3706 68 56.375 67.9999 56.38 67.9999C56.39 67.9998 56.4024 67.9997 56.4171 67.9994C56.4464 67.999 56.4849 67.9981 56.5321 67.9965C56.6263 67.9934 56.7552 67.9874 56.914 67.9761C57.2308 67.9535 57.6704 67.9092 58.1926 67.8221C59.2276 67.6496 60.6382 67.3009 62.073 66.5835C63.5156 65.8622 65.0191 64.7488 66.1574 63.0413C67.3041 61.3213 68 59.1178 68 56.3571H64C64 58.4179 63.4906 59.8305 62.8292 60.8225C62.1595 61.8271 61.2522 62.5217 60.2841 63.0058C59.3082 63.4938 58.3081 63.7477 57.535 63.8765C57.1533 63.9402 56.8395 63.9712 56.629 63.9862C56.5241 63.9937 56.4458 63.9972 56.3988 63.9988C56.3753 63.9995 56.3597 63.9999 56.3525 64C56.349 64 56.3475 64 56.3483 64C56.3486 64 56.3495 64 56.351 64C56.3518 64 56.3526 64 56.3537 64C56.3542 64 56.355 64 56.3553 64C56.3562 64 56.3571 64 56.3571 66ZM68 56.3571V45.6429H64V56.3571H68ZM66 45.6429C68 45.6429 68 45.6418 68 45.6408C68 45.6404 68 45.6393 68 45.6385C68 45.6369 68 45.6351 68 45.6332C68 45.6294 67.9999 45.625 67.9999 45.62C67.9998 45.61 67.9997 45.5976 67.9994 45.5829C67.999 45.5536 67.9981 45.5151 67.9965 45.4679C67.9934 45.3737 67.9874 45.2448 67.9761 45.086C67.9534 44.7692 67.9092 44.3296 67.8221 43.8074C67.6496 42.7724 67.3009 41.3618 66.5835 39.927C65.8622 38.4844 64.7488 36.9809 63.0413 35.8426C61.3213 34.6959 59.1178 34 56.3571 34V38C58.4179 38 59.8305 38.5094 60.8225 39.1708C61.8271 39.8405 62.5217 40.7478 63.0058 41.7159C63.4937 42.6918 63.7477 43.6919 63.8765 44.465C63.9402 44.8467 63.9712 45.1605 63.9862 45.371C63.9937 45.4759 63.9972 45.5542 63.9988 45.6012C63.9995 45.6247 63.9998 45.6403 64 45.6475C64 45.651 64 45.6525 64 45.6517C64 45.6514 64 45.6505 64 45.649C64 45.6482 64 45.6474 64 45.6463C64 45.6458 64 45.645 64 45.6447C64 45.6438 64 45.6429 66 45.6429ZM56.3571 34H36V38H56.3571V34ZM34 36V56.3571H38V36H34ZM34 56.3571C34 59.1178 34.6959 61.3213 35.8426 63.0413C36.9809 64.7488 38.4844 65.8622 39.927 66.5835C41.3618 67.3009 42.7724 67.6496 43.8074 67.8221C44.3296 67.9092 44.7692 67.9535 45.086 67.9761C45.2448 67.9874 45.3737 67.9934 45.4679 67.9965C45.5151 67.9981 45.5536 67.999 45.5829 67.9994C45.5976 67.9997 45.61 67.9998 45.62 67.9999C45.625 67.9999 45.6294 68 45.6332 68C45.6351 68 45.6369 68 45.6385 68C45.6393 68 45.6404 68 45.6408 68C45.6418 68 45.6429 68 45.6429 66C45.6429 64 45.6438 64 45.6447 64C45.645 64 45.6458 64 45.6463 64C45.6474 64 45.6482 64 45.649 64C45.6505 64 45.6514 64 45.6517 64C45.6525 64 45.651 64 45.6475 64C45.6403 63.9999 45.6247 63.9995 45.6012 63.9988C45.5542 63.9972 45.4759 63.9937 45.371 63.9862C45.1605 63.9712 44.8467 63.9402 44.465 63.8765C43.6919 63.7477 42.6918 63.4938 41.7159 63.0058C40.7478 62.5217 39.8405 61.8271 39.1708 60.8225C38.5094 59.8305 38 58.4179 38 56.3571H34Z" fill="#1B284E"/>
</g>
<mask id="mask2_99_3" style="mask-type:luminance" maskUnits="userSpaceOnUse" x="0" y="36" width="30" height="30">
<path d="M9.64286 66H20.3571C20.3571 66 30 66 30 56.3571V36H9.64286C9.53674e-07 36 0 45.6429 0 45.6429V56.3571C0 66 9.64286 66 9.64286 66Z" fill="white"/>
</mask>
<g mask="url(#mask2_99_3)">
<path d="M30 36V34H32V36H30ZM20.3571 68H9.64286V64H20.3571V68ZM9.64286 66C9.64286 68 9.64184 68 9.64079 68C9.64039 68 9.6393 68 9.6385 68C9.63689 68 9.63514 68 9.63323 68C9.62942 68 9.625 67.9999 9.62 67.9999C9.60999 67.9998 9.59761 67.9997 9.58294 67.9994C9.55361 67.999 9.51507 67.9981 9.46794 67.9965C9.37372 67.9934 9.24478 67.9874 9.08602 67.9761C8.76918 67.9535 8.32961 67.9092 7.80737 67.8221C6.77236 67.6496 5.36179 67.3009 3.927 66.5835C2.48439 65.8622 0.98093 64.7488 -0.157401 63.0413C-1.30408 61.3213 -2 59.1178 -2 56.3571H2C2 58.4179 2.50944 59.8305 3.1708 60.8225C3.8405 61.8271 4.74776 62.5217 5.71586 63.0058C6.69179 63.4938 7.69193 63.7477 8.46496 63.8765C8.84674 63.9402 9.16051 63.9712 9.37101 63.9862C9.47592 63.9937 9.55416 63.9972 9.6012 63.9988C9.62468 63.9995 9.64029 63.9999 9.64745 64C9.65103 64 9.65248 64 9.65174 64C9.65137 64 9.65045 64 9.64898 64C9.64824 64 9.64736 64 9.64634 64C9.64583 64 9.64496 64 9.64471 64C9.6438 64 9.64286 64 9.64286 66ZM-2 56.3571V45.6429H2V56.3571H-2ZM3.33786e-06 45.6429C-2 45.6429 -2 45.6418 -2 45.6408C-2 45.6404 -1.99999 45.6393 -1.99999 45.6385C-1.99999 45.6369 -1.99998 45.6351 -1.99998 45.6332C-1.99996 45.6294 -1.99994 45.625 -1.9999 45.62C-1.99982 45.61 -1.99968 45.5976 -1.99944 45.5829C-1.99897 45.5536 -1.9981 45.5151 -1.99653 45.4679C-1.99339 45.3737 -1.98742 45.2448 -1.97608 45.086C-1.95345 44.7692 -1.90916 44.3296 -1.82212 43.8074C-1.64961 42.7724 -1.30089 41.3618 -0.583494 39.927C0.137814 38.4844 1.25119 36.9809 2.95868 35.8426C4.6787 34.6959 6.88218 34 9.64286 34V38C7.58211 38 6.16952 38.5094 5.17748 39.1708C4.17293 39.8405 3.47826 40.7478 2.99421 41.7159C2.50625 42.6918 2.2523 43.6919 2.12346 44.465C2.05983 44.8467 2.02879 45.1605 2.01375 45.371C2.00626 45.4759 2.00282 45.5542 2.00125 45.6012C2.00046 45.6247 2.00015 45.6403 2.00004 45.6475C1.99998 45.651 1.99997 45.6525 1.99998 45.6517C1.99998 45.6514 1.99999 45.6505 1.99999 45.649C2 45.6482 2 45.6474 2 45.6463C2 45.6458 2 45.645 2 45.6447C2 45.6438 2 45.6429 3.33786e-06 45.6429ZM9.64286 34H30V38H9.64286V34ZM32 36V56.3571H28V36H32ZM32 56.3571C32 59.1178 31.3041 61.3213 30.1574 63.0413C29.0191 64.7488 27.5156 65.8622 26.073 66.5835C24.6382 67.3009 23.2276 67.6496 22.1926 67.8221C21.6704 67.9092 21.2308 67.9535 20.914 67.9761C20.7552 67.9874 20.6263 67.9934 20.5321 67.9965C20.4849 67.9981 20.4464 67.999 20.4171 67.9994C20.4024 67.9997 20.39 67.9998 20.38 67.9999C20.375 67.9999 20.3706 68 20.3668 68C20.3649 68 20.3631 68 20.3615 68C20.3607 68 20.3596 68 20.3592 68C20.3582 68 20.3571 68 20.3571 66C20.3571 64 20.3562 64 20.3553 64C20.355 64 20.3542 64 20.3537 64C20.3526 64 20.3518 64 20.351 64C20.3495 64 20.3486 64 20.3483 64C20.3475 64 20.349 64 20.3525 64C20.3597 63.9999 20.3753 63.9995 20.3988 63.9988C20.4458 63.9972 20.5241 63.9937 20.629 63.9862C20.8395 63.9712 21.1533 63.9402 21.535 63.8765C22.3081 63.7477 23.3082 63.4938 24.2841 63.0058C25.2522 62.5217 26.1595 61.8271 26.8292 60.8225C27.4906 59.8305 28 58.4179 28 56.3571H32Z" fill="#1B284E"/>
</g>
</g>
<path d="M86.448 22.464H78.704V21.12H95.728V22.464H87.984V44H86.448V22.464ZM107.061 44V21.216C109.088 21.0667 110.784 20.992 112.149 20.992C114.325 20.992 116.117 21.5573 117.526 22.688C118.934 23.7973 119.638 25.376 119.638 27.424C119.638 28.8107 119.232 30.1013 118.422 31.296C117.611 32.4907 116.704 33.44 115.701 34.144C116.491 35.232 117.462 36.5333 118.614 38.048C119.787 39.5413 120.544 40.48 120.885 40.864C122.187 42.2507 123.659 43.04 125.302 43.232L125.27 44.256C123.968 44.2347 122.912 44.0427 122.102 43.68C121.291 43.296 120.512 42.72 119.766 41.952C119.04 41.184 117.216 38.7947 114.293 34.784C112.203 34.784 110.304 34.72 108.597 34.592V44H107.061ZM113.366 33.504C114.304 33.504 115.307 32.8853 116.373 31.648C117.44 30.4107 117.974 28.9813 117.974 27.36C117.974 25.7173 117.419 24.48 116.31 23.648C115.222 22.7947 113.771 22.368 111.958 22.368C110.998 22.368 109.877 22.4107 108.597 22.496V33.344C110.304 33.4507 111.894 33.504 113.366 33.504ZM134.524 44V21.12H145.148V22.464H136.06V30.88H144.284V32.192H136.06V42.656H145.5V44H134.524ZM165.665 39.36L173.345 21.12H174.977L165.121 44.192H164.225L154.337 21.12H156.065L163.745 39.296C164.278 40.5973 164.609 41.4933 164.737 41.984C164.908 41.3013 165.217 40.4267 165.665 39.36ZM187.617 40.96C185.505 38.6773 184.449 35.872 184.449 32.544C184.449 29.216 185.505 26.4213 187.617 24.16C189.75 21.8773 192.438 20.736 195.681 20.736C198.923 20.736 201.611 21.8773 203.745 24.16C205.878 26.4213 206.945 29.216 206.945 32.544C206.945 35.872 205.878 38.6773 203.745 40.96C201.611 43.2427 198.923 44.384 195.681 44.384C192.438 44.384 189.75 43.2427 187.617 40.96ZM188.769 25.152C186.998 27.136 186.113 29.6 186.113 32.544C186.113 35.488 186.998 37.9627 188.769 39.968C190.561 41.9733 192.865 42.976 195.681 42.976C198.518 42.976 200.822 41.9733 202.593 39.968C204.385 37.9627 205.281 35.488 205.281 32.544C205.281 29.6 204.385 27.136 202.593 25.152C200.822 23.1467 198.518 22.144 195.681 22.144C192.843 22.144 190.539 23.1467 188.769 25.152Z" fill="#1B284E"/>
<defs>
<clipPath id="clip0_99_3">
<rect width="66" height="66" fill="white"/>
</clipPath>
</defs>
</svg>
